<?xml version="1.0" encoding="UTF-8"?>
<svg width="116px" height="116px" viewBox="0 0 116 116" version="1.1" xmlns="http://www.w3.org/2000/svg" xmlns:xlink="http://www.w3.org/1999/xlink">
    <!-- Generator: Sketch 53.1 (72631) - https://sketchapp.com -->
    <title>ICON</title>
    <desc>Created with Sketch.</desc>
    <g id="Page-1" stroke="none" stroke-width="1" fill="none" fill-rule="evenodd">
        <g id="лендинг" transform="translate(-1002.000000, -1937.000000)">
            <g id="3-screen_я-гарантирую" transform="translate(-240.000000, 1552.000000)">
                <g id="3" transform="translate(1143.000000, 387.000000)">
                    <g id="ICON" transform="translate(101.000000, 0.000000)">
                        <path d="M56,112 C86.927946,112 112,86.927946 112,56 C112,25.072054 86.927946,0 56,0 C25.072054,0 0,25.072054 0,56 C0,86.927946 25.072054,112 56,112 Z" id="Oval-Copy" stroke="#C8C7D1" stroke-width="3" stroke-linecap="round" stroke-dasharray="0,11"></path>
                        <circle id="Oval-Copy-2" fill="#514F65" cx="56" cy="56" r="49"></circle>
                        <g id="documents-security" transform="translate(36.000000, 41.000000)" fill="#FFFFFF" fill-rule="nonzero">
                            <path d="M23.5370842,14.5258298 L22.5192517,14.5258298 L22.5192517,12.0856379 C22.5192517,9.5249869 20.5544534,7.44186047 18.1394484,7.44186047 C15.7244433,7.44186047 13.759645,9.52507864 13.759645,12.0856379 L13.759645,14.5258298 L12.7419856,14.5258298 C12.3835853,14.5258298 12.0930233,14.8339042 12.0930233,15.2139056 L12.0930233,25.3584359 C12.0930233,25.7384372 12.3835853,26.0465116 12.7419856,26.0465116 L23.5370842,26.0465116 C23.8954845,26.0465116 24.1860465,25.7384372 24.1860465,25.3584359 L24.1860465,15.2139056 C24.1860465,14.8339042 23.8954845,14.5258298 23.5370842,14.5258298 Z M15.0575696,12.0857297 C15.0575696,10.2839803 16.4401189,8.81810373 18.1394484,8.81810373 C19.8387778,8.81810373 21.2213271,10.2839803 21.2213271,12.0857297 L21.2213271,14.5259215 L15.0575696,14.5259215 L15.0575696,12.0857297 Z M22.8881219,24.6704518 L13.3909479,24.6704518 L13.3909479,15.9020731 L22.8881219,15.9020731 L22.8881219,24.6704518 L22.8881219,24.6704518 Z" id="Shape"></path>
                            <path d="M17.3842785,21.8156683 L17.3842785,23.4948398 C17.3842785,23.8765702 17.7224094,24.1860465 18.1394845,24.1860465 C18.5565596,24.1860465 18.8946905,23.8765702 18.8946905,23.4948398 L18.8946905,21.8156683 C19.8072815,21.527942 20.4651163,20.7347132 20.4651163,19.8029666 C20.4651163,18.6292976 19.4218243,17.6744186 18.1394845,17.6744186 C16.8571447,17.6744186 15.8139535,18.6292976 15.8139535,19.8029666 C15.8139535,20.7347132 16.4716876,21.5280342 17.3842785,21.8156683 Z M18.1394845,19.0569242 C18.5889832,19.0569242 18.9547043,19.3916525 18.9547043,19.8030588 C18.9547043,20.214465 18.5889832,20.5491933 18.1394845,20.5491933 C17.6899859,20.5491933 17.3243655,20.214465 17.3243655,19.8030588 C17.3243655,19.3916525 17.6899859,19.0569242 18.1394845,19.0569242 Z" id="Shape"></path>
                            <path d="M39.5914854,8.4358567 C39.2291327,7.96821529 38.6856498,7.70002576 38.1004599,7.70002576 L35.7093195,7.70002576 L35.7093195,5.16753152 C35.7093195,4.18210402 34.9215,3.38044644 33.9532884,3.38044644 L17.2419727,3.38044644 C17.1270939,3.38044644 17.0240259,3.30654407 16.9852716,3.1964887 L16.2670253,1.15098008 C16.0253645,0.462476699 15.38029,0 14.6618591,0 L6.28391751,0 C5.56557888,0 4.92050432,0.462570603 4.67875131,1.15098008 L3.96041267,3.1965826 C3.92175064,3.30663797 3.81859039,3.38054034 3.70380384,3.38054034 L1.75603116,3.38054034 C0.787819561,3.38035253 0,4.18210402 0,5.16753152 L0,27.9803568 C0,28.9657843 0.787819561,29.7674419 1.75603116,29.7674419 L33.9532884,29.7674419 C34.8866211,29.7674419 35.6499885,29.0220327 35.70406,28.0858108 L39.9469177,10.0832128 C40.0833882,9.50391964 39.9538381,8.90349812 39.5914854,8.4358567 Z M34.3252374,27.9802629 C34.3252374,28.1890112 34.1583171,28.3587895 33.9532884,28.3587895 L1.75603116,28.3587895 C1.55091019,28.3587895 1.38408215,28.1889173 1.38408215,27.9802629 L1.38408215,5.16753152 C1.38408215,4.95878316 1.55100246,4.78900491 1.75603116,4.78900491 L3.70380384,4.78900491 C4.40193488,4.78900491 5.02883182,4.33948695 5.2637567,3.67042167 L5.98209533,1.62481915 C6.0275855,1.49541958 6.1488311,1.40846457 6.28391751,1.40846457 L14.6618591,1.40846457 C14.7969455,1.40846457 14.9181911,1.49541958 14.9636812,1.62491306 L15.6819276,3.67051558 L15.6819276,3.67051558 C15.9169447,4.33958085 16.5438417,4.78900491 17.2419727,4.78900491 L33.9532884,4.78900491 C34.1584093,4.78900491 34.3252374,4.95887706 34.3252374,5.16753152 L34.3252374,27.9802629 Z M38.6010362,9.75464305 L35.7093195,22.0243142 L35.7093195,9.10849033 L38.1004599,9.10849033 C38.3176685,9.10849033 38.4469417,9.23347642 38.5047041,9.30803611 C38.5623742,9.3825019 38.6516936,9.53960313 38.6010362,9.75464305 Z" id="Shape"></path>
                        </g>
                    </g>
                </g>
            </g>
        </g>
    </g>
</svg>