<?xml version="1.0" encoding="UTF-8"?>
<svg width="223px" height="23px" viewBox="0 0 223 23" version="1.1" xmlns="http://www.w3.org/2000/svg" xmlns:xlink="http://www.w3.org/1999/xlink">
    <!-- Generator: Sketch 53.1 (72631) - https://sketchapp.com -->
    <title>logo</title>
    <desc>Created with Sketch.</desc>
    <g id="Page-1" stroke="none" stroke-width="1" fill="none" fill-rule="evenodd">
        <g id="лендинг" transform="translate(-222.000000, -42.000000)" fill-rule="nonzero">
            <g id="1-screen" transform="translate(-584.000000, -525.000000)">
                <g id="header" transform="translate(806.376000, 552.000000)">
                    <g id="logo" transform="translate(0.000000, 15.960000)">
                        <path d="M11.04,8.304 C12.1120054,8.59200144 12.9279972,9.08399652 13.488,9.78 C14.0480028,10.4760035 14.328,11.3439948 14.328,12.384 C14.328,13.8560074 13.7840054,14.9999959 12.696,15.816 C11.6079946,16.6320041 10.0320103,17.04 7.968,17.04 L6.67910172e-13,17.04 L6.67910172e-13,0.24 L7.512,0.24 C9.40000944,0.24 10.8719947,0.61599624 11.928,1.368 C12.9840053,2.12000376 13.512,3.18399312 13.512,4.56 C13.512,5.4400044 13.3000021,6.1999968 12.876,6.84 C12.4519979,7.4800032 11.840004,7.96799832 11.04,8.304 Z M3.072,7.416 L7.248,7.416 C8.25600504,7.416 9.02399736,7.216002 9.552,6.816 C10.0800026,6.415998 10.344,5.82400392 10.344,5.04 C10.344,4.25599608 10.0800026,3.66000204 9.552,3.252 C9.02399736,2.84399796 8.25600504,2.64 7.248,2.64 L3.072,2.64 L3.072,7.416 Z M7.872,14.64 C10.080011,14.64 11.184,13.8080083 11.184,12.144 C11.184,10.5119918 10.080011,9.696 7.872,9.696 L3.072,9.696 L3.072,14.64 L7.872,14.64 Z" id="В" fill="#2F5BEA"></path>
                        <path d="M22.32,4.08 C24.2080094,4.08 25.651995,4.53199548 26.652,5.436 C27.652005,6.34000452 28.152,7.70399088 28.152,9.528 L28.152,17.04 L25.32,17.04 L25.32,15.48 C24.9519982,16.0400028 24.4280034,16.4679985 23.748,16.764 C23.0679966,17.0600015 22.2480048,17.208 21.288,17.208 C20.3279952,17.208 19.4880036,17.0440016 18.768,16.716 C18.0479964,16.3879984 17.492002,15.9320029 17.1,15.348 C16.707998,14.7639971 16.512,14.1040037 16.512,13.368 C16.512,12.2159942 16.9399957,11.2920035 17.796,10.596 C18.6520043,9.89999652 19.9999908,9.552 21.84,9.552 L25.152,9.552 L25.152,9.36 C25.152,8.46399552 24.8840027,7.7760024 24.348,7.296 C23.8119973,6.8159976 23.0160053,6.576 21.96,6.576 C21.2399964,6.576 20.5320035,6.68799888 19.836,6.912 C19.1399965,7.13600112 18.5520024,7.447998 18.072,7.848 L16.896,5.664 C17.5680034,5.15199744 18.3759953,4.76000136 19.32,4.488 C20.2640047,4.21599864 21.2639947,4.08 22.32,4.08 Z M21.912,15.024 C22.6640038,15.024 23.3319971,14.8520017 23.916,14.508 C24.5000029,14.1639983 24.9119988,13.6720032 25.152,13.032 L25.152,11.544 L22.056,11.544 C20.3279914,11.544 19.464,12.1119943 19.464,13.248 C19.464,13.7920027 19.6799978,14.2239984 20.112,14.544 C20.5440022,14.8640016 21.1439962,15.024 21.912,15.024 Z M38.976,4.08 C40.2240062,4.08 41.3399951,4.35199728 42.324,4.896 C43.3080049,5.44000272 44.0799972,6.20799504 44.64,7.2 C45.2000028,8.19200496 45.48,9.33599352 45.48,10.632 C45.48,11.9280065 45.2000028,13.075995 44.64,14.076 C44.0799972,15.076005 43.3080049,15.8479973 42.324,16.392 C41.3399951,16.9360027 40.2240062,17.208 38.976,17.208 C37.2479914,17.208 35.880005,16.6320058 34.872,15.48 L34.872,21.696 L31.872,21.696 L31.872,4.224 L34.728,4.224 L34.728,5.904 C35.2240025,5.29599696 35.8359964,4.84000152 36.564,4.536 C37.2920036,4.23199848 38.0959956,4.08 38.976,4.08 Z M38.64,14.64 C39.7440055,14.64 40.6519964,14.2720037 41.364,13.536 C42.0760036,12.7999963 42.432,11.832006 42.432,10.632 C42.432,9.431994 42.0760036,8.46400368 41.364,7.728 C40.6519964,6.99199632 39.7440055,6.624 38.64,6.624 C37.9199964,6.624 37.2720029,6.78799836 36.696,7.116 C36.1199971,7.44400164 35.6640017,7.91199696 35.328,8.52 C34.9919983,9.12800304 34.824,9.831996 34.824,10.632 C34.824,11.432004 34.9919983,12.135997 35.328,12.744 C35.6640017,13.352003 36.1199971,13.8199984 36.696,14.148 C37.2720029,14.4760016 37.9199964,14.64 38.64,14.64 Z M57.744,10.368 C59.3280079,10.8480024 60.12,11.8719922 60.12,13.44 C60.12,14.5920058 59.6880043,15.4799969 58.824,16.104 C57.9599957,16.7280031 56.6800085,17.04 54.984,17.04 L48.456,17.04 L48.456,4.224 L54.72,4.224 C56.2880078,4.224 57.5119956,4.51199712 58.392,5.088 C59.2720044,5.66400288 59.712,6.47999472 59.712,7.536 C59.712,8.19200328 59.5400017,8.7599976 59.196,9.24 C58.8519983,9.7200024 58.3680031,10.0959986 57.744,10.368 Z M51.312,9.576 L54.456,9.576 C56.0080078,9.576 56.784,9.04000536 56.784,7.968 C56.784,6.9279948 56.0080078,6.408 54.456,6.408 L51.312,6.408 L51.312,9.576 Z M54.744,14.856 C56.3920082,14.856 57.216,14.3200054 57.216,13.248 C57.216,12.6879972 57.0240019,12.2680014 56.64,11.988 C56.2559981,11.7079986 55.6560041,11.568 54.84,11.568 L51.312,11.568 L51.312,14.856 L54.744,14.856 Z M68.088,4.08 C69.9760094,4.08 71.419995,4.53199548 72.42,5.436 C73.420005,6.34000452 73.92,7.70399088 73.92,9.528 L73.92,17.04 L71.088,17.04 L71.088,15.48 C70.7199982,16.0400028 70.1960034,16.4679985 69.516,16.764 C68.8359966,17.0600015 68.0160048,17.208 67.056,17.208 C66.0959952,17.208 65.2560036,17.0440016 64.536,16.716 C63.8159964,16.3879984 63.260002,15.9320029 62.868,15.348 C62.475998,14.7639971 62.28,14.1040037 62.28,13.368 C62.28,12.2159942 62.7079957,11.2920035 63.564,10.596 C64.4200043,9.89999652 65.7679908,9.552 67.608,9.552 L70.92,9.552 L70.92,9.36 C70.92,8.46399552 70.6520027,7.7760024 70.116,7.296 C69.5799973,6.8159976 68.7840053,6.576 67.728,6.576 C67.0079964,6.576 66.3000035,6.68799888 65.604,6.912 C64.9079965,7.13600112 64.3200024,7.447998 63.84,7.848 L62.664,5.664 C63.3360034,5.15199744 64.1439953,4.76000136 65.088,4.488 C66.0320047,4.21599864 67.0319947,4.08 68.088,4.08 Z M67.68,15.024 C68.4320038,15.024 69.0999971,14.8520017 69.684,14.508 C70.2680029,14.1639983 70.6799988,13.6720032 70.92,13.032 L70.92,11.544 L67.824,11.544 C66.0959914,11.544 65.232,12.1119943 65.232,13.248 C65.232,13.7920027 65.4479978,14.2239984 65.88,14.544 C66.3120022,14.8640016 66.9119962,15.024 67.68,15.024 Z M84.744,4.08 C85.9920062,4.08 87.1079951,4.35199728 88.092,4.896 C89.0760049,5.44000272 89.8479972,6.20799504 90.408,7.2 C90.9680028,8.19200496 91.248,9.33599352 91.248,10.632 C91.248,11.9280065 90.9680028,13.075995 90.408,14.076 C89.8479972,15.076005 89.0760049,15.8479973 88.092,16.392 C87.1079951,16.9360027 85.9920062,17.208 84.744,17.208 C83.0159914,17.208 81.648005,16.6320058 80.64,15.48 L80.64,21.696 L77.64,21.696 L77.64,4.224 L80.496,4.224 L80.496,5.904 C80.9920025,5.29599696 81.6039964,4.84000152 82.332,4.536 C83.0600036,4.23199848 83.8639956,4.08 84.744,4.08 Z M84.408,14.64 C85.5120055,14.64 86.4199964,14.2720037 87.132,13.536 C87.8440036,12.7999963 88.2,11.832006 88.2,10.632 C88.2,9.431994 87.8440036,8.46400368 87.132,7.728 C86.4199964,6.99199632 85.5120055,6.624 84.408,6.624 C83.6879964,6.624 83.0400029,6.78799836 82.464,7.116 C81.8879971,7.44400164 81.4320017,7.91199696 81.096,8.52 C80.7599983,9.12800304 80.592,9.831996 80.592,10.632 C80.592,11.432004 80.7599983,12.135997 81.096,12.744 C81.4320017,13.352003 81.8879971,13.8199984 82.464,14.148 C83.0400029,14.4760016 83.6879964,14.64 84.408,14.64 Z M99,4.08 C100.888009,4.08 102.331995,4.53199548 103.332,5.436 C104.332005,6.34000452 104.832,7.70399088 104.832,9.528 L104.832,17.04 L102,17.04 L102,15.48 C101.631998,16.0400028 101.108003,16.4679985 100.428,16.764 C99.7479966,17.0600015 98.9280048,17.208 97.968,17.208 C97.0079952,17.208 96.1680036,17.0440016 95.448,16.716 C94.7279964,16.3879984 94.172002,15.9320029 93.78,15.348 C93.387998,14.7639971 93.192,14.1040037 93.192,13.368 C93.192,12.2159942 93.6199957,11.2920035 94.476,10.596 C95.3320043,9.89999652 96.6799908,9.552 98.52,9.552 L101.832,9.552 L101.832,9.36 C101.832,8.46399552 101.564003,7.7760024 101.028,7.296 C100.491997,6.8159976 99.6960053,6.576 98.64,6.576 C97.9199964,6.576 97.2120035,6.68799888 96.516,6.912 C95.8199965,7.13600112 95.2320024,7.447998 94.752,7.848 L93.576,5.664 C94.2480034,5.15199744 95.0559953,4.76000136 96,4.488 C96.9440047,4.21599864 97.9439947,4.08 99,4.08 Z M98.592,15.024 C99.3440038,15.024 100.011997,14.8520017 100.596,14.508 C101.180003,14.1639983 101.591999,13.6720032 101.832,13.032 L101.832,11.544 L98.736,11.544 C97.0079914,11.544 96.144,12.1119943 96.144,13.248 C96.144,13.7920027 96.3599978,14.2239984 96.792,14.544 C97.2240022,14.8640016 97.8239962,15.024 98.592,15.024 Z" id="арвара" fill="#2C2E30"></path>
                        <path d="M123.288,17.28 C121.575991,17.28 120.032007,16.9080037 118.656,16.164 C117.279993,15.4199963 116.200004,14.3880066 115.416,13.068 C114.631996,11.7479934 114.24,10.2720082 114.24,8.64 C114.24,7.00799184 114.631996,5.5320066 115.416,4.212 C116.200004,2.8919934 117.279993,1.86000372 118.656,1.116 C120.032007,0.37199628 121.575991,-1.27897692e-13 123.288,-1.27897692e-13 C125.000009,-1.27897692e-13 126.543993,0.37199628 127.92,1.116 C129.296007,1.86000372 130.375996,2.88799344 131.16,4.2 C131.944004,5.51200656 132.336,6.99199176 132.336,8.64 C132.336,10.2880082 131.944004,11.7679934 131.16,13.08 C130.375996,14.3920066 129.296007,15.4199963 127.92,16.164 C126.543993,16.9080037 125.000009,17.28 123.288,17.28 Z M123.288,14.544 C124.408006,14.544 125.415996,14.2920025 126.312,13.788 C127.208004,13.2839975 127.911997,12.5800045 128.424,11.676 C128.936003,10.7719955 129.192,9.7600056 129.192,8.64 C129.192,7.5199944 128.936003,6.50800452 128.424,5.604 C127.911997,4.69999548 127.208004,3.99600252 126.312,3.492 C125.415996,2.98799748 124.408006,2.736 123.288,2.736 C122.167994,2.736 121.160004,2.98799748 120.264,3.492 C119.367996,3.99600252 118.664003,4.69999548 118.152,5.604 C117.639997,6.50800452 117.384,7.5199944 117.384,8.64 C117.384,9.7600056 117.639997,10.7719955 118.152,11.676 C118.664003,12.5800045 119.367996,13.2839975 120.264,13.788 C121.160004,14.2920025 122.167994,14.544 123.288,14.544 Z M141.288,17.208 C139.959993,17.208 138.768005,16.9280028 137.712,16.368 C136.655995,15.8079972 135.832003,15.028005 135.24,14.028 C134.647997,13.027995 134.352,11.8960063 134.352,10.632 C134.352,9.36799368 134.647997,8.24000496 135.24,7.248 C135.832003,6.25599504 136.651995,5.4800028 137.7,4.92 C138.748005,4.3599972 139.943993,4.08 141.288,4.08 C142.552006,4.08 143.659995,4.33599744 144.612,4.848 C145.564005,5.36000256 146.279998,6.0959952 146.76,7.056 L144.456,8.4 C144.087998,7.80799704 143.628003,7.36400148 143.076,7.068 C142.523997,6.77199852 141.920003,6.624 141.264,6.624 C140.143994,6.624 139.216004,6.98799636 138.48,7.716 C137.743996,8.44400364 137.376,9.41599392 137.376,10.632 C137.376,11.8480061 137.739996,12.8199964 138.468,13.548 C139.196004,14.2760036 140.127994,14.64 141.264,14.64 C141.920003,14.64 142.523997,14.4920015 143.076,14.196 C143.628003,13.8999985 144.087998,13.456003 144.456,12.864 L146.76,14.208 C146.263998,15.1680048 145.540005,15.9079974 144.588,16.428 C143.635995,16.9480026 142.536006,17.208 141.288,17.208 Z M155.832,8.448 C157.464008,8.448 158.715996,8.81599632 159.588,9.552 C160.460004,10.2880037 160.896,11.3279933 160.896,12.672 C160.896,14.080007 160.416005,15.1679962 159.456,15.936 C158.495995,16.7040038 157.144009,17.0800001 155.4,17.064 L149.4,17.04 L149.4,4.224 L152.4,4.224 L152.4,8.424 L155.832,8.448 Z M155.136,14.856 C156.016004,14.8720001 156.687998,14.6880019 157.152,14.304 C157.616002,13.9199981 157.848,13.3600037 157.848,12.624 C157.848,11.9039964 157.624002,11.3760017 157.176,11.04 C156.727998,10.7039983 156.048005,10.5280001 155.136,10.512 L152.4,10.488 L152.4,14.832 L155.136,14.856 Z M168.864,11.904 L166.536,11.904 L166.536,17.04 L163.536,17.04 L163.536,4.224 L166.536,4.224 L166.536,9.408 L168.936,9.408 L172.728,4.224 L175.944,4.224 L171.288,10.392 L176.256,17.04 L172.728,17.04 L168.864,11.904 Z M178.368,4.224 L181.368,4.224 L181.368,12.672 L188.448,4.224 L191.184,4.224 L191.184,17.04 L188.184,17.04 L188.184,8.592 L181.128,17.04 L178.368,17.04 L178.368,4.224 Z M195.216,4.224 L198.216,4.224 L198.216,9.432 L204.672,9.432 L204.672,4.224 L207.672,4.224 L207.672,17.04 L204.672,17.04 L204.672,11.976 L198.216,11.976 L198.216,17.04 L195.216,17.04 L195.216,4.224 Z M216.48,4.08 C218.368009,4.08 219.811995,4.53199548 220.812,5.436 C221.812005,6.34000452 222.312,7.70399088 222.312,9.528 L222.312,17.04 L219.48,17.04 L219.48,15.48 C219.111998,16.0400028 218.588003,16.4679985 217.908,16.764 C217.227997,17.0600015 216.408005,17.208 215.448,17.208 C214.487995,17.208 213.648004,17.0440016 212.928,16.716 C212.207996,16.3879984 211.652002,15.9320029 211.26,15.348 C210.867998,14.7639971 210.672,14.1040037 210.672,13.368 C210.672,12.2159942 211.099996,11.2920035 211.956,10.596 C212.812004,9.89999652 214.159991,9.552 216,9.552 L219.312,9.552 L219.312,9.36 C219.312,8.46399552 219.044003,7.7760024 218.508,7.296 C217.971997,6.8159976 217.176005,6.576 216.12,6.576 C215.399996,6.576 214.692003,6.68799888 213.996,6.912 C213.299997,7.13600112 212.712002,7.447998 212.232,7.848 L211.056,5.664 C211.728003,5.15199744 212.535995,4.76000136 213.48,4.488 C214.424005,4.21599864 215.423995,4.08 216.48,4.08 Z M216.072,15.024 C216.824004,15.024 217.491997,14.8520017 218.076,14.508 C218.660003,14.1639983 219.071999,13.6720032 219.312,13.032 L219.312,11.544 L216.216,11.544 C214.487991,11.544 213.624,12.1119943 213.624,13.248 C213.624,13.7920027 213.839998,14.2239984 214.272,14.544 C214.704002,14.8640016 215.303996,15.024 216.072,15.024 Z" id="Оськина" fill="#2F5BEA"></path>
                    </g>
                </g>
            </g>
        </g>
    </g>
</svg>